<svg width="16" height="16" viewBox="0 0 16 16" fill="none" xmlns="http://www.w3.org/2000/svg">
<path d="M8.90897 2.90914C9.14328 2.67482 9.52318 2.67482 9.7575 2.90913L14.4242 7.57575C14.5367 7.68827 14.5999 7.84089 14.5999 8.00002C14.5999 8.15915 14.5367 8.31176 14.4242 8.42428L9.7575 13.091C9.52319 13.3253 9.14329 13.3253 8.90897 13.091C8.67466 12.8566 8.67466 12.4767 8.90897 12.2424L12.5514 8.60002H1.9999C1.66853 8.60002 1.3999 8.33139 1.3999 8.00002C1.3999 7.66865 1.66853 7.40002 1.9999 7.40002H12.5514L8.90897 3.75766C8.67466 3.52335 8.67466 3.14345 8.90897 2.90914Z" fill="#111827"/>
</svg>
