<svg width="20" height="20" viewBox="0 0 20 20" fill="none" xmlns="http://www.w3.org/2000/svg">
<path d="M13.5418 18.7502C14.3472 18.7502 15.0002 18.0972 15.0002 17.2918C15.0002 16.4864 14.3472 15.8335 13.5418 15.8335C12.7364 15.8335 12.0835 16.4864 12.0835 17.2918C12.0835 18.0972 12.7364 18.7502 13.5418 18.7502Z" fill="#292D32"/>
<path d="M6.87484 18.7502C7.68025 18.7502 8.33317 18.0972 8.33317 17.2918C8.33317 16.4864 7.68025 15.8335 6.87484 15.8335C6.06942 15.8335 5.4165 16.4864 5.4165 17.2918C5.4165 18.0972 6.06942 18.7502 6.87484 18.7502Z" fill="#292D32"/>
<path opacity="0.4" d="M4.03317 3.28317L3.8665 5.32484C3.83317 5.7165 4.14151 6.0415 4.53317 6.0415H17.2915C17.6415 6.0415 17.9332 5.77483 17.9582 5.42483C18.0665 3.94983 16.9415 2.74984 15.4665 2.74984H5.2415C5.15816 2.38317 4.9915 2.03317 4.73316 1.7415C4.32483 1.29983 3.74151 1.0415 3.14151 1.0415H1.6665C1.32484 1.0415 1.0415 1.32484 1.0415 1.6665C1.0415 2.00817 1.32484 2.2915 1.6665 2.2915H3.11651C3.37484 2.2915 3.61651 2.39984 3.79151 2.58318C3.96651 2.77484 4.04983 3.02484 4.03317 3.28317Z" fill="#292D32"/>
<path d="M17.0919 7.2915H4.30854C3.95854 7.2915 3.67521 7.55817 3.64187 7.89983L3.34187 11.5248C3.22521 12.9415 4.34188 14.1665 5.76688 14.1665H15.0335C16.2835 14.1665 17.3835 13.1415 17.4752 11.8915L17.7502 7.99984C17.7835 7.61651 17.4835 7.2915 17.0919 7.2915Z" fill="#292D32"/>
</svg>
