<svg width="17" height="16" viewBox="0 0 17 16" fill="none" xmlns="http://www.w3.org/2000/svg">
<path d="M8.52425 14.5002C4.75758 14.5002 1.69092 11.4335 1.69092 7.66683C1.69092 3.90016 4.75758 0.833496 8.52425 0.833496C12.2909 0.833496 15.3576 3.90016 15.3576 7.66683C15.3576 11.4335 12.2909 14.5002 8.52425 14.5002ZM8.52425 1.8335C5.30425 1.8335 2.69092 4.4535 2.69092 7.66683C2.69092 10.8802 5.30425 13.5002 8.52425 13.5002C11.7443 13.5002 14.3576 10.8802 14.3576 7.66683C14.3576 4.4535 11.7443 1.8335 8.52425 1.8335Z" fill="#292D32"/>
<path d="M15.524 15.1666C15.3974 15.1666 15.2707 15.12 15.1707 15.02L13.8374 13.6866C13.644 13.4933 13.644 13.1733 13.8374 12.98C14.0307 12.7866 14.3507 12.7866 14.5441 12.98L15.8774 14.3133C16.0707 14.5066 16.0707 14.8266 15.8774 15.02C15.7774 15.12 15.6507 15.1666 15.524 15.1666Z" fill="#292D32"/>
</svg>
