<svg width="20" height="20" viewBox="0 0 20 20" fill="none" xmlns="http://www.w3.org/2000/svg">
<path d="M4.26817 17.4998C4.58317 17.8148 5.00151 17.9882 5.44651 17.9882C5.89151 17.9882 6.30984 17.8148 6.62484 17.4998L10.2382 13.8865C10.8366 14.0711 11.4594 14.1647 12.0857 14.164C12.9065 14.1665 13.7197 14.0061 14.4781 13.6922C15.2366 13.3782 15.9251 12.9168 16.504 12.3348C17.3779 11.4634 17.9736 10.3522 18.2157 9.14207C18.4578 7.93189 18.3354 6.67709 17.864 5.53651L17.389 4.37984L13.8523 7.91568L12.0848 6.14734L15.6207 2.61151L14.4632 2.13568C13.708 1.82479 12.899 1.66538 12.0823 1.66651C10.4132 1.66651 8.84401 2.31651 7.66484 3.49651C6.859 4.29969 6.28838 5.30813 6.01486 6.41251C5.74133 7.51689 5.77533 8.67508 6.11317 9.76151L2.49984 13.3748C2.18759 13.6875 2.01221 14.1113 2.01221 14.5532C2.01221 14.9951 2.18759 15.4189 2.49984 15.7315L4.26817 17.4998ZM8.05817 10.174L7.84651 9.66068C7.50039 8.82431 7.41035 7.90402 7.58778 7.01642C7.76521 6.12883 8.20213 5.31388 8.84317 4.67484C9.31956 4.19536 9.89679 3.82803 10.5329 3.59955C11.169 3.37108 11.8481 3.2872 12.5207 3.35401L9.72651 6.14818L13.8507 10.2732L16.6465 7.47734C16.7117 8.15035 16.6269 8.82944 16.3982 9.46576C16.1696 10.1021 15.8027 10.6798 15.324 11.1573C14.0323 12.449 12.0207 12.8465 10.3373 12.154L9.82484 11.9415L5.44651 16.3215H5.44734L5.44651 17.1548V16.3215L3.67817 14.5532L8.05817 10.174Z" fill="black"/>
</svg>
