<svg width="20" height="20" viewBox="0 0 20 20" fill="none" xmlns="http://www.w3.org/2000/svg">
<path d="M17.5032 6.64567V4.99984C17.5032 3.1615 16.0082 1.6665 14.1698 1.6665H5.8365C3.99817 1.6665 2.50317 3.1615 2.50317 4.99984V6.66484L2.43984 6.66817C2.22967 6.68334 2.03305 6.77757 1.88957 6.93188C1.74608 7.08619 1.66638 7.28912 1.6665 7.49984V9.1665C1.6665 9.38752 1.7543 9.59948 1.91058 9.75576C2.06686 9.91204 2.27882 9.99984 2.49984 9.99984H2.50317V14.9998C2.50317 15.6123 2.839 16.1432 3.33317 16.4332V17.4998C3.33317 17.7209 3.42097 17.9328 3.57725 18.0891C3.73353 18.2454 3.94549 18.3332 4.1665 18.3332H4.99984C5.22085 18.3332 5.43281 18.2454 5.58909 18.0891C5.74537 17.9328 5.83317 17.7209 5.83317 17.4998V16.6665H14.1665V17.4998C14.1665 17.7209 14.2543 17.9328 14.4106 18.0891C14.5669 18.2454 14.7788 18.3332 14.9998 18.3332H15.8332C16.0542 18.3332 16.2661 18.2454 16.4224 18.0891C16.5787 17.9328 16.6665 17.7209 16.6665 17.4998V16.4365C16.9198 16.2916 17.1306 16.0825 17.2774 15.8303C17.4243 15.5781 17.5022 15.2917 17.5032 14.9998V9.99984C17.7242 9.99984 17.9361 9.91204 18.0924 9.75576C18.2487 9.59948 18.3365 9.38752 18.3365 9.1665V7.5515C18.3461 7.42218 18.3256 7.29238 18.2765 7.17234C18.1073 6.7665 17.7473 6.669 17.5032 6.64567ZM15.8382 14.9998H4.16984V10.8332H15.8373L15.8382 14.9998ZM9.16984 5.83317V9.1665H4.16984V5.83317H9.16984ZM15.8365 5.83317V9.1665H10.8365V5.83317H15.8365ZM5.8365 3.33317H14.1698C14.7832 3.33317 15.3157 3.67067 15.6048 4.1665H4.4015C4.69067 3.67067 5.22317 3.33317 5.8365 3.33317Z" fill="black"/>
<path d="M6.25 14.1665C6.94036 14.1665 7.5 13.6069 7.5 12.9165C7.5 12.2261 6.94036 11.6665 6.25 11.6665C5.55964 11.6665 5 12.2261 5 12.9165C5 13.6069 5.55964 14.1665 6.25 14.1665Z" fill="black"/>
<path d="M13.75 14.1665C14.4404 14.1665 15 13.6069 15 12.9165C15 12.2261 14.4404 11.6665 13.75 11.6665C13.0596 11.6665 12.5 12.2261 12.5 12.9165C12.5 13.6069 13.0596 14.1665 13.75 14.1665Z" fill="black"/>
</svg>
