<svg width="32" height="33" viewBox="0 0 32 33" fill="none" xmlns="http://www.w3.org/2000/svg">
<path d="M12.6264 25.2071C12.2359 24.8166 12.2359 24.1834 12.6264 23.7929L19.1179 17.3014C19.3936 17.0257 19.5573 16.8609 19.6691 16.7292C19.7373 16.6489 19.7605 16.6096 19.7663 16.5987C19.7862 16.5344 19.7862 16.4656 19.7663 16.4013C19.7605 16.3904 19.7373 16.3511 19.6691 16.2708C19.5573 16.1391 19.3936 15.9743 19.1179 15.6986L12.6264 9.20711C12.2359 8.81658 12.2359 8.18342 12.6264 7.79289C13.017 7.40237 13.6501 7.40237 14.0406 7.79289L20.5569 14.3091C20.7996 14.5519 21.0226 14.7748 21.1938 14.9764C21.3783 15.1938 21.5605 15.4512 21.667 15.779C21.8193 16.2476 21.8193 16.7524 21.667 17.221C21.5605 17.5488 21.3783 17.8062 21.1938 18.0236C21.0226 18.2252 20.7996 18.4481 20.5569 18.6909C20.5486 18.6991 20.5404 18.7073 20.5321 18.7156L14.0406 25.2071C13.6501 25.5976 13.017 25.5976 12.6264 25.2071Z" fill="#9CA3AF"/>
</svg>
